<svg xmlns="http://www.w3.org/2000/svg" width="34" height="28"><path fill="currentColor" d="M27.143 28c1.928 0 3.553-.685 4.875-2.056C33.339 24.574 34 22.89 34 20.89c0-2.148-.66-3.87-1.982-5.167-1.322-1.296-2.947-1.944-4.875-1.944-1.5 0-2.822.481-3.964 1.444-.215-.666-.322-1.444-.322-2.333 0-2.148.804-4.26 2.41-6.333C26.876 4.48 28.787 2.963 31 2l-.964-2c-3.715 1.778-6.482 4.148-8.304 7.111-1.821 2.963-2.732 6.296-2.732 10 0 2.889.607 5.333 1.821 7.333C22.25 26.814 24.357 28 27.143 28zm-19 0c1.928 0 3.553-.685 4.875-2.056C14.339 24.574 15 22.89 15 20.89c0-2.148-.66-3.87-1.982-5.167-1.322-1.296-2.947-1.944-4.875-1.944-1.5 0-2.822.481-3.964 1.444-.215-.666-.322-1.444-.322-2.333 0-2.148.804-4.26 2.41-6.333C7.876 4.48 9.787 2.963 12 2l-.964-2C7.32 1.778 4.554 4.148 2.732 7.111.911 10.074 0 13.407 0 17.111c0 2.889.607 5.333 1.821 7.333C3.25 26.814 5.357 28 8.143 28z"/></svg>