<svg xmlns="http://www.w3.org/2000/svg" width="70" height="70"><path fill="none" stroke="currentColor" stroke-linecap="square" stroke-width="2" d="M25 69C11.745 69 1 58.255 1 45m23 15c-7.732 0-14-6.268-14-14m13.627-9A9.343 9.343 0 0017 39.745L30.255 53a9.373 9.373 0 00-6.628-16zM31 29l-4.696-4.696v-9.391L13.391 2 4 11.391l11.74 11.74h3.52M41 39l4.696 4.696v9.391L58.609 66 68 56.609l-11.74-11.74h-3.52M31 39l5-5m4.482 5l20.554-20.555a6.705 6.705 0 000-9.481h0a6.705 6.705 0 00-9.481 0L31 29.518 40.482 39z"/></svg>