<svg xmlns="http://www.w3.org/2000/svg" width="73" height="70"><g fill="none" fill-rule="evenodd" stroke="currentColor" stroke-linecap="square" stroke-width="2"><path d="M8.125 55H1V8h38m25.8 0H72v47H24m1 14h23"/><path d="M63.773 37H39.227C38.491 37 38 36.52 38 35.8V2.2c0-.72.49-1.2 1.227-1.2h24.546C64.509 1 65 1.48 65 2.2v33.6c0 .72-.49 1.2-1.227 1.2zM51 29h2M22.857 62H9.143C8.457 62 8 61.517 8 60.792V34.208C8 33.483 8.457 33 9.143 33h13.714c.686 0 1.143.483 1.143 1.208v26.584c0 .725-.457 1.208-1.143 1.208zM15 55h2m15 9h9v5h-9z"/></g></svg>